# xmcd
#
# Track frame offsets:
#	150
#	20725
#	35334
#	52242
#	70254
#	91737
#	118754
#	138081
#	159459
#	174147
#	191967
#	209879
#	247872
#	266022
#	286101
#	301674
#	319131
#	335199
#
# Disc length: 4705 seconds
#
# Revision: 0
# Processed by: cddbd v1.5.2PL0 Copyright (c) Steve Scherf et al.
# Submitted via: EZCDAudioConverter 5.5.1.1
#
DISCID=09125f12
DTITLE=Artisti Vari - RMC - Modern Soul Vol. 3
DYEAR=2016
DGENRE=Soul
TTITLE0=Gamma feat. Chelesa - Love again
TTITLE1=Miguel Migs feat. Martin Luther - Let it play
TTITLE2=Noir and Haze - Around (Acoustic version)
TTITLE3=Tin Deluxe - Love is
TTITLE4=Pharrell Williams - It girl
TTITLE5=Rumer - Be thankful for what you got
TTITLE6=Lana del Rey - West Coast (The Grades icon mix)
TTITLE7=Katy B and Kaytranada - Honey
TTITLE8=Eat More Cake - Teardrops (Jayl Funk mix)
TTITLE9=Behling - Without you
TTITLE10=Synapson - Going back to my roots feat. Tessa B
TTITLE11=Sandy Barber - I think I'll do some stepping (On my own)(Opolopo remi
TTITLE11=x)
TTITLE12=Mac Miller - Dang! feat. Anderson Paak
TTITLE13=Mario Biondi - I'm her daddy (Daddy's poinbt of view version)
TTITLE14=Nitin Sawhney - Keep the light on feat. Joss Stone
TTITLE15=King Krab - Calling you
TTITLE16=Paolo Nutini - Let me down easy
TTITLE17=Sonny Fodera - Into my mind (Original Soul Vocal)
EXTD=
EXTT0=
EXTT1=
EXTT2=
EXTT3=
EXTT4=
EXTT5=
EXTT6=
EXTT7=
EXTT8=
EXTT9=
EXTT10=
EXTT11=
EXTT12=
EXTT13=
EXTT14=
EXTT15=
EXTT16=
EXTT17=
PLAYORDER=
